<svg width="496" height="496" viewBox="0 0 496 496" fill="none" xmlns="http://www.w3.org/2000/svg">
<path fill-rule="evenodd" clip-rule="evenodd" d="M118.314 0.513682C109.06 1.99368 108.466 2.72168 107.532 13.7237C107.268 16.8247 106.34 20.7387 105.47 22.4227C104.03 25.2067 103.632 25.3947 101.063 24.4987C99.5093 23.9577 96.0383 21.2807 93.3493 18.5507C89.9073 15.0557 87.6693 13.5867 85.7873 13.5867C77.8963 13.5867 50.8853 39.2657 50.8853 46.7667C50.8853 47.7777 53.3603 51.2967 56.3853 54.5867C59.4103 57.8767 61.8853 61.4957 61.8853 62.6287C61.8853 65.3257 56.5273 67.5867 50.1403 67.5867C44.3423 67.5867 41.2113 69.5477 40.0913 73.8817C39.3113 76.8987 38.9363 77.1227 33.6783 77.6937C26.2343 78.5027 16.3963 83.2647 10.9803 88.6817C8.55729 91.1047 5.18229 96.0117 3.48029 99.5867L0.385289 106.087L0.117289 233.587C-0.146711 359.015 -0.117712 361.193 1.86629 367.587C5.41429 379.025 13.0023 387.058 24.7403 391.805L30.3853 394.087L108.635 394.366L186.885 394.645V412.049V429.452L170.557 429.77C154.77 430.077 154.096 430.176 150.179 432.771C142.923 437.578 141.885 441.291 141.885 462.435C141.885 485.279 143.141 489.123 152.095 493.693C155.656 495.511 159.503 495.587 247.885 495.587C336.267 495.587 340.114 495.511 343.675 493.693C352.629 489.123 353.885 485.279 353.885 462.435C353.885 441.291 352.847 437.578 345.591 432.771C341.674 430.176 341 430.077 325.213 429.77L308.885 429.452V412.02V394.587H384.336C436.392 394.587 461.43 394.238 465.086 393.463C479.52 390.4 490.321 380.449 494.319 366.529C495.749 361.548 495.888 347.756 495.65 233.529L495.385 106.087L492.29 99.5867C488.358 91.3257 482.146 85.1137 473.885 81.1817L467.385 78.0867L345.079 77.8247L222.773 77.5637L221.724 74.5537C220.383 70.7077 218.211 69.5867 212.1 69.5867C205.999 69.5867 200.885 67.8857 200.885 65.8567C200.885 63.4787 204.72 57.8407 207.857 55.6067C212.222 52.4987 213.165 48.5787 210.669 43.9207C203.933 31.3477 186.295 14.5867 179.8 14.5867C177.637 14.5867 175.297 16.0307 170.885 20.0867C167.595 23.1117 164.235 25.5867 163.419 25.5867C160.659 25.5867 158.79 20.0137 159.047 12.5467C159.321 4.57468 158.605 3.39968 152.385 1.61468C147.325 0.162681 125.015 -0.558318 118.314 0.513682ZM126.205 15.2837C124.506 15.6137 123.789 16.8087 122.955 20.6967C118.826 39.9507 103.843 45.6727 88.2023 33.9687C86.4513 32.6587 84.7873 31.5867 84.5043 31.5867C83.3823 31.5867 71.8753 41.7367 70.8723 43.6117C70.0073 45.2267 70.2843 46.2437 72.3123 48.9027C83.6043 63.7067 76.6423 79.6927 57.8163 82.1907L53.0933 82.8167L52.4063 89.2317C52.0293 92.7597 52.0103 97.3677 52.3663 99.4717C52.9833 103.125 53.2453 103.35 58.1983 104.468C76.2133 108.534 81.9873 123.129 71.1823 137.286L67.8213 141.688L69.7743 144.388C70.8483 145.872 73.9883 149.296 76.7523 151.997L81.7783 156.906L85.3153 154.208C92.8983 148.425 102.295 147.021 107.885 150.837C112.25 153.817 116.654 161.862 117.623 168.627L118.405 174.087L123.895 174.587C126.914 174.862 131.603 174.862 134.315 174.587L139.245 174.087L140.386 169.087C144.656 150.37 159.842 145.164 175.447 157.067L178.566 159.446L184.534 154.558C187.817 151.87 191.078 148.595 191.781 147.281C192.927 145.14 192.717 144.407 189.753 140.202C186.957 136.236 186.386 134.453 186.06 128.673C185.771 123.562 186.124 120.886 187.457 118.076C189.72 113.308 196.456 108.961 203.995 107.403C210.6 106.039 210.885 105.45 210.885 93.1617V85.9867L205.014 84.7747C187.693 81.1967 181.917 65.8687 192.612 51.8577C196.33 46.9857 196.49 47.7917 190.344 40.3827C188.655 38.3457 186.066 35.7307 184.593 34.5717L181.913 32.4637L178.58 35.0057C165.415 45.0477 150.796 40.9077 146.265 25.8557C145.506 23.3327 144.885 20.0527 144.885 18.5667C144.885 16.0547 144.517 15.8207 139.635 15.2347C134.086 14.5677 129.8 14.5837 126.205 15.2837ZM122.187 44.6877C92.8963 49.5757 73.5933 78.5147 80.3913 107.347C86.9693 135.25 114.958 152.608 142.792 146.047C168.226 140.052 185.591 114.873 182.027 89.1577C179.64 71.9347 168.96 57.1607 153.385 49.5357C142.461 44.1877 133.516 42.7977 122.187 44.6877ZM118.89 61.2547C93.1373 70.2647 85.9443 102.879 105.553 121.734C111.335 127.294 116.365 129.939 124.254 131.567C139.438 134.701 156.154 126.317 163.423 111.924C166.105 106.614 166.372 105.175 166.378 95.9917C166.385 86.4187 166.204 85.5407 162.885 79.0427C156.57 66.6757 144.7 59.5407 130.597 59.6347C126.631 59.6607 121.362 60.3897 118.89 61.2547ZM28.0533 95.1897C22.3743 98.0207 18.4083 102.46 16.3123 108.335C15.2253 111.38 14.9653 132.769 14.9293 221.837L14.8853 331.587H247.902H480.919L480.652 220.258L480.385 108.929L477.359 104.035C475.483 101.001 472.471 97.9887 469.437 96.1127L464.542 93.0867L344.362 92.8247L224.182 92.5627L223.519 101.191C222.716 111.632 221.191 118.089 219.12 119.807C218.159 120.604 214.657 121.087 209.837 121.087C203.63 121.087 201.681 121.464 199.991 122.992C196.768 125.908 197.404 128.081 203.385 134.587C207.456 139.015 208.885 141.336 208.885 143.519C208.885 149.152 193.022 166.115 180.885 173.461C175.322 176.828 172.974 176.27 166.692 170.087C159.792 163.297 156.545 162.763 154.334 168.055C153.537 169.962 152.885 173.912 152.885 176.832C152.885 183.641 151.195 185.976 144.634 188.232C138.391 190.379 120.762 190.609 111.608 188.662C104.193 187.086 102.87 185.18 103.004 176.268C103.109 169.223 101.264 164.587 98.3533 164.587C97.5363 164.587 94.1753 167.062 90.8853 170.087C87.3113 173.373 83.9933 175.585 82.6443 175.583C79.0823 175.577 74.0283 171.971 65.2993 163.206C56.2383 154.108 49.8853 145.281 49.8853 141.79C49.8853 140.39 51.8163 137.407 54.7473 134.277C57.4223 131.423 60.1823 127.992 60.8813 126.654C62.0003 124.51 61.8953 124.013 59.9923 122.473C58.8053 121.511 55.2573 120.437 52.1093 120.086C44.2893 119.213 40.8943 117.74 39.7463 114.722C39.2133 113.318 38.5073 107.764 38.1793 102.378C37.6213 93.2067 37.4473 92.5867 35.4303 92.5867C34.2463 92.5867 30.9273 93.7587 28.0533 95.1897ZM262.525 119.208C259.247 120.222 256.092 122.284 252.834 125.543C244.483 133.894 244.796 130.18 245.111 217.177C245.384 292.898 245.39 293.097 247.555 297.14C250.412 302.477 255.437 307.391 260.385 309.687C264.186 311.451 268.804 311.544 353.385 311.555L442.385 311.567L447.385 309.234C453.545 306.359 458.993 300.473 461.494 293.991C463.289 289.336 463.385 285.246 463.385 213.587C463.385 144.687 463.236 137.759 461.686 134.337C458.891 128.169 455.196 124.077 449.639 120.998L444.385 118.087L355.885 117.896C279.573 117.731 266.716 117.912 262.525 119.208ZM266.885 134.339C261.097 137.23 259.888 141.028 259.887 156.337L259.885 169.587H353.885H447.885V155.222C447.885 142 447.712 140.637 445.717 138.101C441.247 132.418 444.06 132.587 353.667 132.589C276.382 132.59 270.133 132.716 266.885 134.339ZM275.713 144.708C270.28 146.729 270.124 156.008 275.482 158.449C277.226 159.244 291.05 159.587 321.297 159.587C363.607 159.587 364.677 159.539 367.25 157.514C370.663 154.83 370.938 148.851 367.781 145.992C365.786 144.186 363.403 144.077 322.031 143.9C295.081 143.785 277.363 144.094 275.713 144.708ZM382.717 145.061C377.64 147.923 378.213 156.605 383.617 158.691C385.139 159.279 389.258 159.583 392.769 159.368C397.948 159.049 399.504 158.54 401.019 156.67C403.408 153.72 403.402 149.447 401.005 146.487C399.426 144.537 398.027 144.117 392.255 143.861C387.507 143.651 384.561 144.021 382.717 145.061ZM417.885 144.244C412.135 146.56 410.903 153.879 415.635 157.61C417.975 159.455 419.381 159.722 425.062 159.404C433.236 158.946 435.885 157.033 435.885 151.587C435.885 146.216 433.23 144.238 425.578 143.907C422.172 143.76 418.71 143.911 417.885 144.244ZM260.552 185.254C260.185 185.62 259.885 208.36 259.885 235.786C259.885 289.888 259.905 290.098 265.399 294.419L268.155 296.587H354.138H440.12L444.003 292.705L447.885 288.822V236.705V184.587H354.552C303.218 184.587 260.918 184.887 260.552 185.254ZM358.279 203.025C354.791 204.534 356.115 200.601 344.243 244.727C339.814 261.186 337.83 270.23 338.265 271.965C339.11 275.331 343.154 277.987 346.251 277.21C352.103 275.741 352.569 274.623 360.915 242.087C365.289 225.037 368.871 210.124 368.876 208.948C368.887 206.353 366.115 202.958 363.385 202.221C362.285 201.925 359.987 202.286 358.279 203.025ZM309.041 222.975C297.281 234.647 295.552 236.777 295.552 239.587C295.552 242.397 297.281 244.527 309.041 256.199C319.724 266.802 323.097 269.587 325.253 269.587C329.033 269.587 332.885 265.502 332.885 261.492C332.885 258.813 331.371 256.766 323.363 248.616L313.842 238.924L323.863 229.495C334.778 219.226 335.717 217.186 331.812 212.222C330.258 210.246 328.838 209.587 326.135 209.587C322.847 209.587 321.347 210.762 309.041 222.975ZM375.924 211.776C371.717 216.291 372.986 219.211 383.721 229.712L393.56 239.338L384.157 248.879C375.298 257.869 374.773 258.636 375.07 262.154C375.478 266.984 379.359 270.187 383.535 269.139C386.66 268.354 409.142 246.827 411.466 242.393C412.43 240.555 412.595 238.967 411.988 237.393C411.498 236.125 405.242 229.349 398.087 222.337C386.347 210.832 384.729 209.587 381.52 209.587C379.149 209.587 377.283 210.317 375.924 211.776ZM58.1853 247.435C50.8353 249.994 45.5403 253.969 41.5333 259.936C36.6913 267.144 35.5743 271.449 36.0743 280.974C36.4193 287.537 37.0593 290.136 39.3813 294.403C42.6423 300.394 47.7883 305.429 54.0903 308.794L58.3853 311.087L129.029 311.363C198.709 311.635 199.749 311.61 205.29 309.537C212.118 306.982 219.464 300.121 222.902 293.087C224.935 288.927 225.349 286.575 225.365 279.087C225.382 271.253 225.026 269.356 222.615 264.445C219.382 257.863 212.683 251.308 206.061 248.248C201.428 246.107 200.746 246.085 132.385 245.856C68.0223 245.64 63.0363 245.746 58.1853 247.435ZM62.3853 262.483C52.3253 267.141 48.1993 277.403 52.7793 286.377C54.9453 290.621 57.0403 292.665 61.5853 294.966C64.4393 296.412 71.8993 296.587 130.52 296.587C194.588 296.587 196.36 296.535 200.458 294.552C205.348 292.185 209.713 286.42 210.558 281.216C211.826 273.402 205.332 263.916 197.162 261.647C194.706 260.965 171.178 260.604 129.885 260.615C70.2043 260.63 66.1443 260.742 62.3853 262.483ZM73.8853 273.587C71.1053 276.367 71.3093 281.102 74.3403 284.132L76.7943 286.587H113.405C149.702 286.587 153.031 286.316 155.12 283.187C156.387 281.289 155.951 276.127 154.328 273.81L152.772 271.587H114.328C77.2183 271.587 75.8163 271.656 73.8853 273.587ZM15.2233 348.149C14.1053 351.061 15.6063 362.12 17.6613 366.116C20.2403 371.134 24.3373 375.043 29.1033 377.034C32.4253 378.422 55.7153 378.587 247.885 378.587C483.834 378.587 466.646 379.03 473.227 372.784C478.253 368.014 480.243 362.905 480.318 354.587L480.385 347.087L248.104 346.835C38.0173 346.607 15.7663 346.732 15.2233 348.149ZM231.52 357.66C228.451 360.074 227.971 364.837 230.442 368.364C231.939 370.503 232.602 370.587 247.885 370.587C263.168 370.587 263.831 370.503 265.328 368.364C267.799 364.837 267.319 360.074 264.25 357.66C261.875 355.791 260.261 355.587 247.885 355.587C235.509 355.587 233.895 355.791 231.52 357.66ZM201.885 412.087V429.587H247.885H293.885V412.087V394.587H247.885H201.885V412.087ZM158.54 446.416C157.155 447.946 156.885 450.688 156.885 463.216C156.885 473.527 157.259 478.561 158.085 479.387C159.824 481.126 335.946 481.126 337.685 479.387C339.365 477.707 339.365 447.467 337.685 445.787C336.77 444.872 315.564 444.587 248.34 444.587C164.217 444.587 160.119 444.67 158.54 446.416Z" fill="#5EFE39"/>
</svg>
