<svg width="512" height="512" viewBox="0 0 512 512" fill="none" xmlns="http://www.w3.org/2000/svg">
<g clip-path="url(#clip0_7_13)">
<path fill-rule="evenodd" clip-rule="evenodd" d="M55.4999 1.60401C51.6499 2.39601 44.2249 5.12601 38.9999 7.67001C31.0649 11.533 28.0829 13.712 20.8969 20.897C13.7059 28.089 11.5369 31.058 7.67492 39C-0.565083 55.948 -8.35545e-05 39.965 -8.35545e-05 256C-8.35545e-05 472.035 -0.565083 456.052 7.67492 473C11.5369 480.942 13.7059 483.911 20.8969 491.103C28.0889 498.294 31.0579 500.463 38.9999 504.325C55.9479 512.565 39.9649 512 256 512C464.29 512 455.438 512.22 468.5 506.723C488.694 498.226 506.07 477.772 509.889 458C510.579 454.425 511.562 450.719 512.072 449.764C513.211 447.632 513.352 60.664 512.214 61.368C511.782 61.635 510.879 58.849 510.207 55.177C506.48 34.788 489.035 13.917 468.5 5.27701C455.423 -0.225994 464.418 -0.00699443 255.292 0.0820056C91.5869 0.151006 61.4439 0.380006 55.4999 1.60401ZM0.489916 256C0.489916 362.975 0.606916 406.737 0.749916 353.25C0.892916 299.762 0.892916 212.237 0.749916 158.75C0.606916 105.262 0.489916 149.025 0.489916 256ZM129.024 97.603C110.657 102.539 97.1179 120.282 97.0239 139.54C96.9449 155.927 106.579 171.223 121.681 178.687C128.221 181.919 130.309 182.447 138.019 182.815C157.202 183.732 172.84 174.294 180.794 157C184.191 149.613 184.993 135.956 182.532 127.394C176.04 104.81 152.005 91.428 129.024 97.603ZM321.5 199.058C301.596 201.746 284.873 210.935 275.202 224.5L273.063 227.5L273.032 218.7C272.998 209.367 271.586 204.919 268.055 203.03C266.869 202.395 255.535 202 238.489 202H210.846L207.923 204.923L205 207.846V307.973C205 416.743 204.768 412.206 210.472 414.805C212.292 415.635 221.118 416 239.325 416C261.956 416 265.874 415.776 267.883 414.369C272.944 410.825 273 410.13 273 351.192C273 300.212 273.137 295.783 274.935 288.756C278.554 274.602 284.557 265.778 294.196 260.438C299.163 257.687 300.199 257.5 310.5 257.5C320.506 257.5 321.96 257.743 326.59 260.186C335.367 264.817 339.685 270.946 343.234 283.808C345.252 291.125 345.383 294.412 345.928 351.224L346.5 410.947L348.776 413.224C351.019 415.467 351.456 415.504 378.708 415.796C408.905 416.12 411.009 415.817 413.617 410.773C415.92 406.32 415.126 282.057 412.705 268C408.547 243.854 402.579 230.482 390.562 218.382C381.175 208.929 372.573 204.072 359.74 200.978C350.044 198.641 331.49 197.709 321.5 199.058ZM114.212 202.097C112.222 202.69 110.151 204.345 108.966 206.288C107.056 209.42 107.007 211.974 107.004 309.35L107 409.2L110.4 412.6L113.8 416H139.95C169.192 416 170.995 415.65 173.579 409.466C175.698 404.394 175.702 213.617 173.584 208.546C170.774 201.823 169.467 201.522 142.047 201.309C128.294 201.201 116.054 201.548 114.212 202.097Z" fill="black"/>
</g>
<defs>
<clipPath id="clip0_7_13">
<rect width="512" height="512" fill="white"/>
</clipPath>
</defs>
</svg>
