<svg width="389" height="431" viewBox="0 0 389 431" fill="none" xmlns="http://www.w3.org/2000/svg">
<path fill-rule="evenodd" clip-rule="evenodd" d="M207.781 0.43735C204.633 0.88135 200.676 1.95935 198.987 2.83235C195.477 4.64735 192.014 9.74535 192.009 13.1054C192.002 17.0144 194.927 22.6464 199.261 27.0734C203.928 31.8414 203.565 32.2574 197.358 29.2524C192.489 26.8954 189.25 22.3333 188.214 16.3743L187.505 12.2934L183.903 14.7433C179.693 17.6073 177.493 22.1484 178.457 25.9864C178.83 27.4724 180.841 30.3953 182.927 32.4813L186.72 36.2733L183.213 41.4804C171.643 58.6614 164.901 84.3644 164.79 111.716C164.735 125.204 164.803 125.664 167.119 127.467C175.549 134.03 191.417 138.181 202.324 136.678C206.075 136.161 209.355 136.08 209.613 136.498C209.871 136.916 209.787 139.484 209.426 142.204C208.94 145.873 208.284 147.278 206.888 147.643C205.287 148.062 205.005 149.113 205.005 154.668V161.2L200.255 161.801C197.642 162.131 188.669 163.992 180.314 165.937C162.905 169.988 157.907 172.609 152.926 180.295C150.981 183.297 147.258 186.847 143.011 189.749C139.271 192.304 131.093 199.666 124.838 206.109C115.421 215.807 112.65 219.399 108.734 226.982C106.133 232.019 104.005 237.013 104.005 238.079C104.005 240.587 113.473 254.72 121.648 264.414C128.424 272.449 135.745 278.902 142.755 283.018C147.468 285.785 147.62 286.1 145.586 288.882C144.201 290.776 144.015 290.78 137.836 289.059C121.434 284.491 100.659 280.184 92.505 279.661C82.284 279.006 76.4389 280.185 72.3099 283.737C69.9109 285.801 69.535 286.942 69.178 293.261C68.525 304.824 73.662 339.671 81.514 376.936C83.434 386.049 85.005 393.85 85.005 394.274C85.005 395.195 58.3849 406.71 48.5789 410.032C38.2229 413.539 34.005 416.548 34.005 420.43C34.005 422.858 41.117 423.617 70.505 424.327C113.218 425.36 127.295 423.901 132.978 417.852C135.649 415.009 135.525 413.322 131.606 399.125C128.003 386.074 125.135 365.95 124.351 348.222L123.706 333.62L133.605 332.222C139.678 331.364 152.01 330.825 165.505 330.829C185.474 330.835 188.24 331.048 195.47 333.135C212.414 338.027 219.583 343.951 229.436 361.202C236.99 374.428 240.877 384.166 239.052 385.294C236.572 386.826 217.618 390.35 206.168 391.407C189.124 392.981 174.591 391.503 149.407 385.637L147.309 385.148L149.664 403.486C152.599 426.336 152.561 426.18 155.27 426.823C170.712 430.492 203.592 431.449 221.877 428.761C243.123 425.637 262.575 419.543 281.424 410.103C301.935 399.83 313.884 391.346 330.356 375.356C380.336 326.841 400.159 255.158 382.492 186.82C377.092 165.933 366.108 142.616 352.828 123.849C347.041 115.67 321.768 88.3233 319.996 88.3233C319.581 88.3233 318.081 92.0363 316.664 96.5733C313.864 105.537 308.695 114.935 303.731 120.087L300.586 123.351L307.184 130.087C315.156 138.227 323.272 148.769 328.005 157.134C329.93 160.537 335.208 169.008 339.733 175.959C355.266 199.82 366.398 225.028 372.468 250.086C374.219 257.316 374.216 257.374 371.947 262.967C366.728 275.824 351.262 293.916 338.688 301.87C336.064 303.53 333.483 306.2 332.499 308.27C329.485 314.616 318.446 330.635 311.629 338.557C305.566 345.602 290.639 359.323 289.037 359.323C288.166 359.323 270.994 319.232 271.04 317.307C271.136 313.317 273.898 311.012 282.603 307.658C304.42 299.253 326.458 286.444 338.527 275.154C345.361 268.761 353.005 258.286 353.005 255.314C353.005 254.334 351.701 250.448 350.107 246.678C348.513 242.908 345.319 234.198 343.009 227.323C340.699 220.448 336.97 211.038 334.723 206.412C330.699 198.128 321.435 184.699 317.095 180.86C315.875 179.78 312.907 176.137 310.501 172.765C304.72 164.663 296.347 157.129 289.255 153.646C284.081 151.106 282.529 150.832 273.755 150.913L264.005 151.002V148.198C264.005 145.177 261.698 143.323 257.942 143.323C255.51 143.323 255.507 143.574 258.175 122.109L259.257 113.395L262.844 112.211C264.817 111.56 268.781 108.678 271.652 105.806C275.701 101.757 277.25 99.2893 278.552 94.8083C280.469 88.2143 280.059 80.9483 277.632 78.5213C274.251 75.1413 265.763 77.5113 259.138 83.6853L255.771 86.8233L257.299 83.8233C262.338 73.9293 274.382 70.1143 281.239 76.2413C284.432 79.0943 284.505 79.3453 284.505 87.4913C284.505 94.6493 284.099 96.6504 281.622 101.694C280.037 104.923 276.851 109.536 274.544 111.944C272.236 114.352 270.833 116.373 271.426 116.434C282.019 117.521 294.329 103.573 298.655 85.5824C301.016 75.7654 300.792 59.0454 298.154 48.0894C293.831 30.1424 285.8 19.6434 270.937 12.5094C253.609 4.19335 222.843 -1.68865 207.781 0.43735ZM142.505 48.8064C107.741 58.5584 79.816 75.2653 54.49 101.463C38.428 118.078 28.808 132.005 18.583 153.448C-13.752 221.258 -3.26705 302.993 45.186 360.823C54.207 371.591 58.005 375.271 58.005 373.247C58.004 372.464 55.978 360.573 53.501 346.823C48.013 316.362 46.0119 301.647 45.9809 291.522C45.9679 287.021 45.1199 280.708 43.9409 276.323C35.2419 243.972 37.8419 207.082 51.0509 175.469C66.6959 138.028 100.867 104.941 138.505 90.7903C143.472 88.9233 144.625 88.0434 145.199 85.6794C145.581 84.1084 146.866 78.3233 148.054 72.8233C149.821 64.6443 153.022 54.8934 156.671 46.5734C157.451 44.7954 155.974 45.0284 142.505 48.8064ZM281.978 209.012C271.561 220.147 264.094 232.885 259.072 248.086C254.241 262.709 253.864 274.509 258.185 275.88C259.308 276.236 261.958 278.093 264.075 280.006C266.826 282.49 268.493 283.303 269.916 282.851C274.826 281.293 287.142 271.988 293.878 264.748C300.791 257.317 308.53 250.17 313.218 246.886C315.21 245.491 315.094 245.226 308.694 236.507C301.019 226.051 292.426 211.422 290.817 206.073C290.196 204.011 289.361 202.323 288.961 202.323C288.561 202.323 285.419 205.333 281.978 209.012ZM160.005 215.449C156.24 220.697 146.886 228.802 140.233 232.582L136.122 234.916L139.381 237.516C141.273 239.026 144.827 244.248 147.857 249.97C153.882 261.347 157.755 266.345 158.994 264.34C161.667 260.016 164.224 236.92 162.992 228.233C162.367 223.828 162.378 219.628 163.023 216.228C163.568 213.352 163.9 210.903 163.76 210.785C163.62 210.667 161.93 212.766 160.005 215.449Z" fill="black"/>
</svg>
