<svg width="489" height="305" viewBox="0 0 489 305" fill="none" xmlns="http://www.w3.org/2000/svg">
<path fill-rule="evenodd" clip-rule="evenodd" d="M219.23 41.098C205.755 63.716 184.264 99.818 171.472 121.325C158.68 142.832 147.88 160.535 147.472 160.666C147.064 160.796 135.037 140.434 120.746 115.416L94.763 69.928H47.381H0L1.474 72.178C3.752 75.656 48.117 152.827 93.475 232.208L134.489 303.987L146.593 303.708L158.697 303.428L175.336 274.928L191.975 246.428L244.353 246.19L296.73 245.953L310.186 269.19C317.587 281.971 325.167 295.05 327.029 298.254L330.415 304.081L360.573 303.691C389.37 303.319 391.171 303.182 400.507 300.665C420.282 295.334 438.328 284.943 452.683 270.621C463.424 259.905 469.272 251.914 475.511 239.428C492.874 204.681 492.718 167.337 475.065 132.761C458.916 101.129 430.451 79.886 394.044 72.296C387.06 70.84 377.745 70.472 335.833 69.995L285.937 69.428L265.333 34.726C254.001 15.64 244.505 0.0130079 244.23 7.94286e-06C243.955 -0.0139921 232.705 18.481 219.23 41.098ZM233.075 70.222C227.215 80.235 209.199 110.703 193.04 137.928C176.88 165.153 160.075 193.609 155.694 201.164C151.314 208.719 147.451 214.906 147.11 214.914C146.768 214.922 131.297 188.378 112.73 155.928L78.971 96.928H63.041C54.28 96.928 47.304 97.266 47.539 97.678C49.793 101.638 84.756 162.553 90.73 172.928C95.005 180.353 106.265 199.928 115.752 216.428C143.813 265.233 145.726 268.434 146.751 268.289C147.289 268.212 149.696 264.837 152.1 260.789C168.149 233.755 231.973 125.387 237.265 116.186C240.821 110.003 243.955 104.944 244.23 104.944C244.505 104.943 245.805 106.852 247.118 109.186C250.106 114.494 264.068 138.278 274.263 155.428C278.514 162.578 285.844 174.953 290.552 182.928L299.112 197.428L284.465 197.706C276.409 197.859 269.302 197.786 268.672 197.544C268.041 197.302 262.397 188.29 256.128 177.516C249.86 166.743 244.506 157.941 244.23 157.957C243.955 157.974 235.816 171.586 226.143 188.207L208.555 218.428L260.293 218.687L312.031 218.946L323.992 239.187C330.571 250.319 338.193 263.253 340.93 267.928L345.907 276.428L365.319 276.316C381.817 276.222 385.931 275.882 392.73 274.051C423.217 265.841 447.59 242.023 456.811 211.428C459.228 203.409 459.528 200.793 459.565 187.428C459.599 174.983 459.231 171.065 457.408 164.428C447.984 130.131 420.004 104.433 385.539 98.423C378.978 97.278 368.322 96.928 340.099 96.928C319.821 96.928 303.23 97.178 303.23 97.483C303.23 98.185 316.823 121.176 371.635 213.184C383.023 232.3 392.086 248.352 391.774 248.856C390.808 250.42 377.679 252.929 370.533 252.916L363.73 252.903L330.749 197.166C312.61 166.51 288.522 125.903 277.221 106.928C265.92 87.953 253.986 67.824 250.702 62.196C247.417 56.568 244.505 51.976 244.23 51.99C243.955 52.004 238.935 60.209 233.075 70.222Z" fill="#5EFE39"/>
</svg>
